<svg xmlns="http://www.w3.org/2000/svg" width="16" height="18" viewBox="0 0 16 18">
    <path fill="#000" fill-rule="evenodd" d="M12.744 14.025c0 .42-.28.728-.73.728a.724.724 0 0 1-.73-.728c0-.392.309-.728.73-.728.45 0 .73.308.73.728zm0-4.003c0 .42-.28.728-.73.728a.724.724 0 0 1-.73-.728c0-.392.309-.728.73-.728.45 0 .73.308.73.728zM8.73 14.025c0 .42-.28.728-.73.728a.724.724 0 0 1-.73-.728c0-.392.309-.728.73-.728.45 0 .73.308.73.728zm0-4.003c0 .42-.28.728-.73.728a.724.724 0 0 1-.73-.728c0-.392.309-.728.73-.728.45 0 .73.308.73.728zm-4.014 4.003c0 .42-.28.728-.73.728a.724.724 0 0 1-.73-.728c0-.392.309-.728.73-.728.45 0 .73.308.73.728zm0-4.003c0 .42-.28.728-.73.728a.724.724 0 0 1-.73-.728c0-.392.309-.728.73-.728.45 0 .73.308.73.728zm9.291 7.026c.73 0 1.01-.308 1.01-1.036v-9.07H.983v9.07c0 .728.281 1.036 1.011 1.036h12.014zM.982 5.991h14.036V4.03c0-.728-.281-1.036-1.011-1.036H1.993c-.73 0-1.01.308-1.01 1.036v1.96zM14.007 18H1.993C.646 18 0 17.356 0 16.012V4.032c0-1.345.646-1.988 1.993-1.988h1.01V0h.983v2.044h8.056V0h.983v2.044h.982c1.347 0 1.993.643 1.993 1.987v11.981C16 17.356 15.354 18 14.007 18z"/>
</svg>
