<svg id="Calque_2" data-name="Calque 2" xmlns="http://www.w3.org/2000/svg" xmlns:xlink="http://www.w3.org/1999/xlink" viewBox="0 0 600 600"><defs><style>.cls-1{fill:none;}.cls-2{fill:url(#Nouvelle_nuance_de_dégradé_1_6);}.cls-3{fill:#fff;}.cls-4{fill:url(#Dégradé_sans_nom_6);}.cls-5{clip-path:url(#clip-path);}.cls-6{fill:#ffefa9;}</style><linearGradient id="Nouvelle_nuance_de_dégradé_1_6" x1="489.32" y1="75.17" x2="110.07" y2="527.15" gradientUnits="userSpaceOnUse"><stop offset="0" stop-color="#ffefa9"/><stop offset="0.04" stop-color="#ffeca0"/><stop offset="0.11" stop-color="#ffe586"/><stop offset="0.19" stop-color="#ffd85d"/><stop offset="0.27" stop-color="#fc3"/><stop offset="0.99" stop-color="#bf6f00"/></linearGradient><linearGradient id="Dégradé_sans_nom_6" x1="420.32" y1="90.67" x2="180.72" y2="505.67" gradientUnits="userSpaceOnUse"><stop offset="0" stop-color="#ffefa9"/><stop offset="0.03" stop-color="#ffeca0"/><stop offset="0.07" stop-color="#ffe586"/><stop offset="0.13" stop-color="#ffd85d"/><stop offset="0.18" stop-color="#fc3"/><stop offset="0.99" stop-color="#bf6f00"/></linearGradient><clipPath id="clip-path"><circle class="cls-1" cx="300.16" cy="299.11" r="239.57"/></clipPath></defs><title>Plan de travail 1</title><circle class="cls-2" cx="299.7" cy="301.16" r="295"/><circle class="cls-3" cx="299.7" cy="300.23" r="277.01"/><circle class="cls-4" cx="300.52" cy="298.17" r="239.57"/><g class="cls-5"><path class="cls-6" d="M378.09,426.69c4.62-.17,44.57-6.6,44.57-6.6-1.75-30.27-16.15-51.82-39.05-46.42C370,390.82,361.9,414.74,378.09,426.69Z"/><path class="cls-3" d="M336.65,430.42q-3.66,1-2.65,6.8l7.84-2.23C340.78,431.26,339.05,429.73,336.65,430.42Z"/><path class="cls-3" d="M276.26,449.79a4.48,4.48,0,0,0-7.36,2.09,10.72,10.72,0,0,0,.26,6.06,10.92,10.92,0,0,0,2.94,5.27,4.27,4.27,0,0,0,4.24,1.06q5.07-1.44,2.87-9.23A10.73,10.73,0,0,0,276.26,449.79Z"/><path class="cls-3" d="M442,467.71a13.91,13.91,0,0,0,3-.57Z"/><path class="cls-3" d="M383.31,373.44S79.49,472.05,76.21,472.83c-6,22.11,1,34.09,21.37,55.13,131.13-20.1,318.52-55.35,344.4-60.25C418.56,469.71,355.91,427.64,383.31,373.44Zm-197,120.63q-7.24,2.06-12.45-.88T166.54,483q-2.11-7.44.82-12.61T177.84,463a42.62,42.62,0,0,1,9.9-1.58l1.36,4.8a29.25,29.25,0,0,0-9.58.67,9.33,9.33,0,0,0-6.35,5q-1.68,3.68-.14,9.11t5.08,7.56a10.11,10.11,0,0,0,8.4.84,20.35,20.35,0,0,0,8.14-4.68l1.28,4.52A25.79,25.79,0,0,1,186.26,494.07Zm28.86-9L214,481q-1.56,5.44-6.14,6.74a6.2,6.2,0,0,1-5.14-.54,7.52,7.52,0,0,1-3.13-4.58l-4.38-15.45,5.89-1.67,4,14c.71,2.49,1.89,3.49,3.55,3q2.79-.8,4.25-5.49l-3.9-13.76,5.89-1.67,6.2,21.86Zm26.9-9.18a11.16,11.16,0,0,1-6.11,3.81,28.68,28.68,0,0,1-8.3,1.07l-1.23-4.32a21.09,21.09,0,0,0,8-.29c2.41-.69,3.39-1.86,2.92-3.5-.3-1.06-1.56-1.71-3.78-1.94l-2.22-.23a13.67,13.67,0,0,1-5.44-1.51,5.54,5.54,0,0,1-2.45-3.35,5.83,5.83,0,0,1,1-5.5,11.54,11.54,0,0,1,6.14-3.61,33.17,33.17,0,0,1,6.57-1l1.17,4.14a19.47,19.47,0,0,0-6.22.43q-3.66,1.05-3,3.31c.28,1,1.43,1.58,3.43,1.76l1.9.17a16.56,16.56,0,0,1,6.18,1.43,5.38,5.38,0,0,1,2.59,3.42A6.2,6.2,0,0,1,242,475.91Zm17.5-2.89q-7.66,2.18-9.7-5l-3.26-11.51-2.45.7-1.05-3.69,2.45-.69-1-3.69,5.7-2.34,1.24,4.36,4.67-1.33,1.05,3.68-4.68,1.33,3.05,10.73q1.14,4,4.42,3.09a7.55,7.55,0,0,0,1.74-.79l1,3.58A13.2,13.2,0,0,1,259.52,473Zm25.3-10.47q-2.18,3.92-7.54,5.43a11.22,11.22,0,0,1-9-.79,11.88,11.88,0,0,1-5.38-7.47q-1.5-5.3.66-9.23a13.18,13.18,0,0,1,16.53-4.68,11.75,11.75,0,0,1,5.4,7.45C286.49,456.85,286.28,459.94,284.82,462.55Zm36-7.45-3.93-13.82q-1.1-3.88-3.69-3.15t-4.07,5.29L313,457.3l-5.65,1.6-3.92-13.82q-1.11-3.9-3.72-3.16t-4,5.3l3.94,13.87L294,462.7l-6.21-21.86,5.66-1.61,1.17,4.12q1.28-5.34,6.05-6.71a6.81,6.81,0,0,1,4.41.07,5.32,5.32,0,0,1,2.92,2.85q1.75-5.49,6.09-6.72,6-1.71,7.87,4.9l4.47,15.75Zm22.74-5.92q-5.47,1.56-9.53-.65T328.43,441a11.92,11.92,0,0,1,.58-9,10.37,10.37,0,0,1,6.78-5.27c3.19-.91,5.82-.56,7.86,1s3.69,4.58,4.93,8.95L335,440.52q2.37,6.08,8.64,4.3a20.42,20.42,0,0,0,6.31-3.27l1.17,4.14A29.23,29.23,0,0,1,343.53,449.18ZM364.12,424q-3.53,1-4.72,5.2L363.34,443l-5.9,1.68-6.2-21.86,5.89-1.68,1.17,4.12q1-5.26,5.66-6.59a4.86,4.86,0,0,1,1.13-.19l1.49,5.25A7.15,7.15,0,0,0,364.12,424Z"/></g><path class="cls-3" d="M111.42,226.72c-31.49,30.61-45,57.33-49.32,96.7,36.46,19.35,155.34-28.34,181.09-43.19-8.74,3.47-83.77,50.25-86.67,64.71,15-24.48,255-117.68,276.7-96.24-11,66.52-1.52,141,17.35,214.56.32,1.25-13,4.41-13,4.41-1.17.87,22.46.5,21.7-3.77-14.29-58.47-28.54-142.39-16.91-207,68.72,7.78,84.2,100.84,76.15,134.42-4.91,43.6-62.14,77.06-86.65,75.87,24.31,4.51,85.5-8.84,101.76-67.81-.4-44.57,2.59-134.13-89.48-155.1-.4-3.2,4.11-12.53,4.28-13.58C464.64,234,473.37,253,470.55,256.4c-7.5,9.18,23.73,16.94,25.72,16.69,2-5.22,3.55-8.73,3.79-18.94,20,25.51,29.18,49.18,27.8,81.44,2.82-.91-3.11,5.18,0,0,4.19-7,17.52-26.85,22.1-40.19-17.37-29.19-29.83-59.58-48.37-73.12l-24.84-8.19c2.47-15.3,22.88-2.53,42.87-11.14,20.11-2.3-4.83-33.83-4.83-33.83s-28.21-4-44.24,16.92c-2.17,2.82-5.85,12.77-6.6,16.53-27.6-29.77-59.22-56.83-119.42-64.62-119.2-12.18-188.73,38.13-219,73.16,76-60.6,230.33-92.1,310.51-15-62.66-4.11-181.56,61.17-181.56,61.17l-75.57-39.52L245.1,263c.49.82-123.06,67.74-170.61,53.91C73.33,297.91,94.84,245.19,111.42,226.72Z"/><path class="cls-3" d="M407.77,273.57c-34.44-6.05-88.46,46.88-92.72,59.12,25.15,3.37,90.68-16.14,90.68-16.14C413.82,313.47,427.89,280.37,407.77,273.57Zm-67.5,54.8c-10.37-11.8,3-20.58,9.48-13C344.38,315.6,338.73,319.4,340.27,328.37Zm20.26-22.12c-.55,3.72,4.4,9.6,8.84,10.61C360.3,316.78,354,314.25,360.53,306.25Zm1.39-3.74c3.94-13.77,15.64-9.87,16.2-1.64C371.18,303.41,363.22,299.93,361.92,302.51Zm41.82-19.94-7,7.31c-2.89,2.25-6.37,1.49-10,0C389.53,281,397.55,280.6,403.74,282.57ZM386.8,293c1.38,10.8,23.51,4.73,18.73-8.91C420.12,306.71,386.32,315.53,386.8,293Z"/><path class="cls-3" d="M439,357.78c2.48-1,14.45-14.24,14.45-14.24L439,253.38l14.45,2.7s5.26,52,5.76,50.17c.31-1.15,8.08-41.93,8.08-41.93l12,5.31L464.16,339l8.31-4,17.41-55.4,10,13.9-13.09,34.95L509,312.54l7,13.84L462.65,353l-6.56,9.59,7.81,3.28L518.27,335l3.38,13.82-29.9,15.71,31.48,3.09V381l-42.12-12.33-10.56,4.81,7.81,10.83,41.58,10.3-3,12.56-30.32-10.85,26.81,23.42-7,13-42.06-42.31,32.05,52.9-13.09,10.14-17.44-45.68,8.67,50.15-16.26,4.24-6.13-81.51L439,371.45Z"/></svg>